<svg width="64" height="64" viewBox="0 0 64 64" fill="none" xmlns="http://www.w3.org/2000/svg">
<path fill-rule="evenodd" clip-rule="evenodd" d="M32 50C41.9411 50 50 41.9411 50 32C50 22.0589 41.9411 14 32 14C22.0589 14 14 22.0589 14 32C14 41.9411 22.0589 50 32 50ZM32 52C43.0457 52 52 43.0457 52 32C52 20.9543 43.0457 12 32 12C20.9543 12 12 20.9543 12 32C12 43.0457 20.9543 52 32 52Z" fill="#F7D9BF" fill-opacity="0.5"/>
<path fill-rule="evenodd" clip-rule="evenodd" d="M31 10L31 8.74232e-08L33 0L33 10L31 10Z" fill="#F7D9BF" fill-opacity="0.5"/>
<path fill-rule="evenodd" clip-rule="evenodd" d="M15.7364 17.1508L8.66538 10.0797L10.0796 8.66553L17.1507 15.7366L15.7364 17.1508Z" fill="#F7D9BF" fill-opacity="0.5"/>
<path fill-rule="evenodd" clip-rule="evenodd" d="M31 64L31 54L33 54L33 64L31 64Z" fill="#F7D9BF" fill-opacity="0.5"/>
<path fill-rule="evenodd" clip-rule="evenodd" d="M53.9205 55.3344L46.8495 48.2633L48.2637 46.8491L55.3347 53.9202L53.9205 55.3344Z" fill="#F7D9BF" fill-opacity="0.5"/>
<path fill-rule="evenodd" clip-rule="evenodd" d="M54 31L64 31L64 33L54 33L54 31Z" fill="#F7D9BF" fill-opacity="0.5"/>
<path fill-rule="evenodd" clip-rule="evenodd" d="M46.8492 15.7366L53.9203 8.6655L55.3345 10.0797L48.2634 17.1508L46.8492 15.7366Z" fill="#F7D9BF" fill-opacity="0.5"/>
<path fill-rule="evenodd" clip-rule="evenodd" d="M1.74846e-07 31L10 31L10 33L0 33L1.74846e-07 31Z" fill="#F7D9BF" fill-opacity="0.5"/>
<path fill-rule="evenodd" clip-rule="evenodd" d="M8.6656 53.9203L15.7367 46.8492L17.1509 48.2634L10.0798 55.3345L8.6656 53.9203Z" fill="#F7D9BF" fill-opacity="0.5"/>
</svg>
